#!OML:ASF F:\VICON\USERDATA\INSTALL\rory3\rory3.ASF
:FULLY-SPECIFIED
:DEGREES
1070
root -1.51124 17.8382 0.273612 183.588 54.4088 177.937
lowerback 4.19692 1.15899 0.396287
upperback 1.49038 1.6053 0.903713
thorax -0.837689 0.816262 0.626012
lowerneck -6.77564 -2.25181 -6.32685
upperneck 23.0381 -1.78668 2.26
head 8.34722 -0.835125 1.71283
rclavicle -4.96962e-014 4.41302e-014
rhumerus -34.9445 -0.126264 -81.1187
rradius 32.8252
rwrist -8.54057
rhand -12.1175 15.904
rfingers 7.12502
rthumb 13.9438 -13.6085
lclavicle -4.96962e-014 4.41302e-014
lhumerus -38.5977 -9.20079 88.7662
lradius 49.3801
lwrist 17.7954
lhand -5.89914 26.8374
lfingers 7.12502
lthumb 19.9293 55.8355
rfemur -1.26158 5.10742 25.8032
rtibia 16.5408
rfoot -18.5182 -14.0594
rtoes -8.19435
lfemur -30.231 -5.96727 -20.7422
ltibia 13.8879
lfoot -12.0884 9.94699
ltoes -23.1251
1071
root -1.43829 17.8308 0.223335 183.708 54.6187 178.021
lowerback 4.2046 1.19357 0.341951
upperback 1.44554 1.64711 0.845098
thorax -0.888093 0.836371 0.593538
lowerneck -6.81825 -2.2292 -6.29649
upperneck 23.0869 -1.77613 2.34506
head 8.37072 -0.81976 1.73759
rclavicle 1.40143e-014 1.74931e-014
rhumerus -35.0986 -0.10194 -81.2037
rradius 32.7665
rwrist -8.41198
rhand -12.1459 15.6896
rfingers 7.12502
rthumb 13.9164 -13.8247
lclavicle 1.40143e-014 1.74931e-014
lhumerus -38.7762 -8.81284 88.5562
lradius 48.3805
lwrist 17.6954
lhand -5.97127 26.8552
lfingers 7.12502
lthumb 19.86 55.8605
rfemur -0.743373 5.19119 25.8685
rtibia 16.0571
rfoot -18.5011 -13.9782
rtoes -8.39427
lfemur -30.2088 -6.0294 -20.6046
ltibia 13.1586
lfoot -12.3515 10.4059
ltoes -22.036
1072
root -1.36582 17.8231 0.171843 183.899 54.8145 178.316
lowerback 4.28913 1.19387 0.42615
upperback 1.4515 1.65192 0.823926
thorax -0.926225 0.839053 0.522585
lowerneck -6.88565 -2.18007 -6.3596
upperneck 23.1228 -1.72737 2.48443
head 8.39424 -0.789897 1.7997
rclavicle -7.25564e-015 -7.55382e-015
rhumerus -35.2312 0.0388272 -81.3181
rradius 32.7484
rwrist -8.42047
rhand -12.1469 15.6299
rfingers 7.12502
rthumb 13.9155 -13.8845
lclavicle -7.25564e-015 -7.55382e-015
lhumerus -38.909 -8.19293 88.2535
lradius 47.3638
lwrist 17.4672
lhand -5.83236 26.9825
lfingers 7.12502
lthumb 19.9935 55.9739
rfemur -0.143221 5.14568 26.0853
rtibia 15.6209
rfoot -18.1995 -14.134
rtoes -10.432
lfemur -30.1122 -6.02344 -20.4187
ltibia 12.6545
lfoot -12.502 10.9346
ltoes -22.111
1073
root -1.29494 17.8151 0.120874 184.21 54.9434 178.759
lowerback 4.40259 1.21138 0.643532
upperback 1.4754 1.68605 0.782607
thorax -0.957784 0.856785 0.354512
lowerneck -6.95681 -2.14776 -6.31846
upperneck 23.0823 -1.71273 2.57257
head 8.39216 -0.773549 1.82272
rclavicle 2.79292e-014 -1.15295e-014
rhumerus -35.3414 -0.109961 -81.3867
rradius 32.6926
rwrist -8.33412
rhand -12.0216 15.7507
rfingers 7.12502
rthumb 14.0361 -13.7554
lclavicle 2.79292e-014 -1.15295e-014
lhumerus -38.98 -7.90885 87.969
lradius 46.3647
lwrist 17.187
lhand -5.66103 27.1429
lfingers 7.12502
lthumb 20.1582 56.117
rfemur 0.434656 5.12323 26.3929
rtibia 15.2359
rfoot -18.0529 -14.2089
rtoes -11.4977
lfemur -30.0846 -5.98519 -20.1674
ltibia 12.4088
lfoot -12.6943 11.2144
ltoes -21.3931
1074
root -1.22212 17.8085 0.0690389 184.392 55.0881 178.947
lowerback 4.45649 1.234 0.620812
upperback 1.45617 1.71497 0.749366
thorax -1.00728 0.870872 0.33009
lowerneck -7.00841 -2.11827 -6.27729
upperneck 23.0499 -1.68882 2.6051
head 8.38873 -0.757568 1.82812
rclavicle 1.80894e-014 -3.10104e-014
rhumerus -35.5821 -0.00194647 -81.4827
rradius 32.8716
rwrist -8.48549
rhand -11.9857 15.6201
rfingers 7.12502
rthumb 14.0708 -13.8836
lclavicle 1.80894e-014 -3.10104e-014
lhumerus -39.0876 -7.65583 87.7702
lradius 45.3406
lwrist 17.0157
lhand -5.51795 27.2627
lfingers 7.12502
lthumb 20.2957 56.2222
rfemur 0.872572 5.15666 26.5148
rtibia 14.9643
rfoot -18.1197 -14.1015
rtoes -11.549
lfemur -30.1544 -5.8048 -20.1336
ltibia 12.3895
lfoot -12.5901 11.3834
ltoes -21.3979
1075
root -1.14637 17.8001 0.0153917 184.2 55.2936 178.631
lowerback 4.41404 1.24956 0.262492
upperback 1.43163 1.71663 0.663951
thorax -1.0166 0.870677 0.443727
lowerneck -7.02033 -2.06734 -6.27288
upperneck 23.0224 -1.62458 2.616
head 8.37826 -0.727144 1.83651
rclavicle -2.50469e-014 0
rhumerus -35.7926 0.289485 -81.5968
rradius 32.9737
rwrist -8.7154
rhand -12.0347 15.3643
rfingers 7.12502
rthumb 14.0235 -14.1426
lclavicle -2.50469e-014 0
lhumerus -39.2835 -7.36688 87.5975
lradius 44.3413
lwrist 16.9959
lhand -5.66975 27.3614
lfingers 7.12502
lthumb 20.1498 56.3364
rfemur 1.19446 5.26774 26.3254
rtibia 14.8545
rfoot -18.1472 -14.125
rtoes -12.1386
lfemur -30.2311 -5.56406 -20.4509
ltibia 12.5228
lfoot -12.2991 11.5543
ltoes -22.0208
1076
root -1.06816 17.7938 -0.0406226 183.817 55.56 178.086
lowerback 4.33532 1.29029 -0.186303
upperback 1.41496 1.74701 0.507813
thorax -0.998357 0.884814 0.535122
lowerneck -7.04646 -2.00846 -6.25582
upperneck 22.9981 -1.56349 2.68235
head 8.37148 -0.69197 1.86112
rclavicle -1.83876e-014 6.75868e-015
rhumerus -35.9016 0.369414 -81.6901
rradius 32.8389
rwrist -8.68438
rhand -12.0613 15.2269
rfingers 7.12502
rthumb 13.9979 -14.2819
lclavicle -1.83876e-014 6.75868e-015
lhumerus -39.5082 -7.01532 87.3318
lradius 43.4381
lwrist 16.7411
lhand -5.81889 27.5313
lfingers 7.12502
lthumb 20.0065 56.5213
rfemur 1.40789 5.39186 25.9923
rtibia 14.9594
rfoot -18.2051 -14.2185
rtoes -13.2866
lfemur -30.1435 -5.32688 -20.9179
ltibia 12.6313
lfoot -12.1121 11.6207
ltoes -21.1304
1077
root -0.99016 17.7888 -0.100323 183.656 55.8121 177.911
lowerback 4.33791 1.3212 -0.429394
upperback 1.42314 1.77648 0.431441
thorax -0.996612 0.899325 0.591493
lowerneck -7.10115 -1.95236 -6.24058
upperneck 23.0081 -1.49049 2.6957
head 8.38098 -0.655999 1.86966
rclavicle 7.46933e-014 -1.98785e-014
rhumerus -35.9732 0.377537 -81.7161
rradius 32.6657
rwrist -8.5321
rhand -11.9367 15.2374
rfingers 7.12502
rthumb 14.118 -14.263
lclavicle 7.46933e-014 -1.98785e-014
lhumerus -39.7383 -6.55138 87.0719
lradius 42.5741
lwrist 16.3764
lhand -5.95627 27.7658
lfingers 7.12502
lthumb 19.8744 56.7696
rfemur 1.6247 5.32629 25.8681
rtibia 15.1983
rfoot -18.3401 -14.2071
rtoes -14.3013
lfemur -29.9227 -5.20335 -21.1118
ltibia 12.7745
lfoot -11.8748 11.6561
ltoes -19.6474
1078
root -0.912462 17.7768 -0.158538 183.651 56.0451 177.916
lowerback 4.30576 1.38193 -0.515398
upperback 1.46025 1.85285 0.326312
thorax -0.940881 0.937456 0.529449
lowerneck -7.14547 -1.94248 -6.17777
upperneck 22.9884 -1.5097 2.7864
head 8.38242 -0.652669 1.88722
rclavicle 1.23893e-013 -5.56597e-015
rhumerus -36.0322 0.105072 -81.7143
rradius 32.5177
rwrist -8.31731
rhand -11.7694 15.3749
rfingers 7.12502
rthumb 14.2792 -14.1142
lclavicle 1.23893e-013 -5.56597e-015
lhumerus -39.8569 -6.2583 86.764
lradius 41.5983
lwrist 16.0097
lhand -6.16063 27.9335
lfingers 7.12502
lthumb 19.6779 56.9575
rfemur 1.84234 5.259 25.8708
rtibia 15.4218
rfoot -18.5335 -14.2169
rtoes -15.0106
lfemur -29.8801 -5.36914 -21.0136
ltibia 13.1468
lfoot -11.6124 11.6844
ltoes -18.5676
1079
root -0.835559 17.7624 -0.217027 183.725 56.2411 177.995
lowerback 4.26507 1.45389 -0.472764
upperback 1.47618 1.94873 0.171168
thorax -0.896338 0.985435 0.343282
lowerneck -7.16415 -1.94916 -6.10775
upperneck 22.926 -1.57277 2.94806
head 8.36681 -0.663128 1.92284
rclavicle -1.16339e-013 9.34288e-015
rhumerus -36.1782 -0.202427 -81.7893
rradius 32.4188
rwrist -8.1767
rhand -11.7558 15.3007
rfingers 7.12502
rthumb 14.2923 -14.1874
lclavicle -1.16339e-013 9.34288e-015
lhumerus -39.9135 -5.98753 86.3263
lradius 40.5641
lwrist 15.6065
lhand -5.98747 27.8795
lfingers 7.12502
lthumb 19.8444 56.8864
rfemur 2.08323 5.25574 25.9115
rtibia 15.6
rfoot -18.8487 -14.0642
rtoes -14.6992
lfemur -29.9101 -5.56133 -20.8692
ltibia 13.7012
lfoot -11.2888 11.5212
ltoes -17.425
1080
root -0.754979 17.7493 -0.281278 183.733 56.4707 178.079
lowerback 4.27756 1.49241 -0.502249
upperback 1.49577 1.99837 0.0939885
thorax -0.881952 1.01045 0.278257
lowerneck -7.27836 -1.91954 -6.11373
upperneck 22.969 -1.54335 3.02001
head 8.40106 -0.643877 1.95093
rclavicle -1.78906e-014 -8.34896e-015
rhumerus -36.3396 -0.12641 -81.9031
rradius 32.3512
rwrist -8.16954
rhand -12.0382 15.0123
rfingers 7.12502
rthumb 14.0202 -14.4948
lclavicle -1.78906e-014 -8.34896e-015
lhumerus -40.0536 -5.44173 85.9149
lradius 39.558
lwrist 15.0457
lhand -5.7803 27.8316
lfingers 7.12502
lthumb 20.0435 56.8178
rfemur 2.41351 5.35245 25.9588
rtibia 15.8264
rfoot -19.151 -13.9687
rtoes -14.6302
lfemur -29.7502 -5.25549 -20.9568
ltibia 14.2594
lfoot -10.8615 10.8473
ltoes -16.3657
1081
root -0.672686 17.7322 -0.348148 183.651 56.7539 178.068
lowerback 4.29324 1.5072 -0.638762
upperback 1.50952 2.01219 0.0455161
thorax -0.879606 1.01739 0.304063
lowerneck -7.35282 -1.85549 -6.13429
upperneck 23.0145 -1.44813 3.02114
head 8.42566 -0.601174 1.96408
rclavicle -8.79125e-014 1.51076e-014
rhumerus -36.4449 -0.034441 -81.951
rradius 32.1713
rwrist -7.97617
rhand -12.2343 14.923
rfingers 7.12502
rthumb 13.8312 -14.5972
lclavicle -8.79125e-014 1.51076e-014
lhumerus -40.2934 -4.88145 85.6019
lradius 38.6357
lwrist 14.5626
lhand -5.91761 27.9082
lfingers 7.12502
lthumb 19.9116 56.9082
rfemur 2.79392 5.47191 25.9512
rtibia 15.996
rfoot -19.2508 -14.0659
rtoes -15.7327
lfemur -29.5734 -5.02808 -21.069
ltibia 14.925
lfoot -10.5376 10.259
ltoes -16.4526
1082
root -0.590324 17.7155 -0.417635 183.666 57.0533 178.087
lowerback 4.23082 1.57161 -0.675836
upperback 1.49364 2.09513 -0.0547559
thorax -0.85948 1.05865 0.219587
lowerneck -7.37361 -1.82694 -6.051
upperneck 23.0562 -1.41768 3.01382
head 8.44093 -0.580141 1.95093
rclavicle -4.6938e-014 -7.15625e-015
rhumerus -36.6056 -0.155591 -81.9519
rradius 32.0298
rwrist -7.77584
rhand -12.0078 14.9996
rfingers 7.12502
rthumb 14.0494 -14.5055
lclavicle -4.6938e-014 -7.15625e-015
lhumerus -40.4975 -4.59911 85.2829
lradius 37.7235
lwrist 14.2672
lhand -5.94867 28.024
lfingers 7.12502
lthumb 19.8817 57.027
rfemur 3.14329 5.44167 25.8919
rtibia 16.0384
rfoot -19.3575 -13.8135
rtoes -16.159
lfemur -29.4624 -5.05462 -21.0759
ltibia 15.6673
lfoot -10.4294 9.81544
ltoes -17.0102
